<svg xmlns="http://www.w3.org/2000/svg" viewBox="0 0 24 24" fill="#111827">
<path d="M12 .5C5.7.5.5 5.7.5 12c0 5.1 3.3 9.4 7.9 10.9.6.1.8-.3.8-.6v-2c-3.2.7-3.9-1.4-3.9-1.4-.5-1.2-1.2-1.5-1.2-1.5-1-.7.1-.7.1-.7 1.1.1 1.7 1.1 1.7 1.1 1 .1.8-.7.8-1.1-.7-.1-1.5-.4-1.5-1.7 0-.4.1-.7.3-1-.1-.3-.3-1 .1-2 0 0 .8-.2 2.6 1 .8-.2 1.6-.3 2.4-.3.8 0 1.6.1 2.4.3 1.8-1.2 2.6-1 2.6-1 .4 1 .2 1.7.1 2 .2.3.3.6.3 1 0 1.3-.8 1.6-1.5 1.7.2.2.3.5.3.9v2.6c0 .3.2.7.8.6 4.6-1.5 7.9-5.8 7.9-10.9C23.5 5.7 18.3.5 12 .5z"/>
</svg>
